<svg xmlns="http://www.w3.org/2000/svg" width="1120" height="560" viewBox="0 0 1120 560" role="img" aria-labelledby="title desc">
  <title id="title">DrowseOff system overview</title>
  <desc id="desc">ESP32 and LD2410C sensor send sleep readings to the DrowseOff API. The API stores data, renders the dashboard, sends TV OFF through a remote hub, and verifies TV power with a Shelly meter.</desc>
  <defs>
    <style>
      .bg{fill:#f5f7fb}
      .card{fill:#fff;stroke:#ccd5e3;stroke-width:2}
      .accent{fill:#2f65c8}
      .accent2{fill:#16794f}
      .warn{fill:#a96d12}
      .bad{fill:#bf352d}
      .text{font-family:Inter,Segoe UI,Arial,sans-serif;fill:#18202c}
      .muted{fill:#657184}
      .mono{font-family:Consolas,Menlo,monospace}
      .line{fill:none;stroke:#566174;stroke-width:3;stroke-linecap:round;stroke-linejoin:round}
      .dash{stroke-dasharray:9 8}
    </style>
    <marker id="arrow" viewBox="0 0 10 10" refX="9" refY="5" markerWidth="8" markerHeight="8" orient="auto-start-reverse">
      <path d="M0 0 L10 5 L0 10 z" fill="#566174"/>
    </marker>
  </defs>
  <rect class="bg" width="1120" height="560" rx="0"/>

  <text class="text" x="44" y="56" font-size="30" font-weight="800">DrowseOff reference architecture</text>
  <text class="muted" x="44" y="86" font-size="16">Bedside sensing, local storage, remote TV OFF, and power-meter verification.</text>

  <rect class="card" x="48" y="142" width="220" height="230" rx="12"/>
  <circle class="accent" cx="98" cy="196" r="26"/>
  <rect x="146" y="176" width="72" height="42" rx="7" fill="#e9eef8" stroke="#9fb2d5"/>
  <text class="text" x="78" y="258" font-size="20" font-weight="800">Bedside sensor</text>
  <text class="muted mono" x="78" y="290" font-size="14">ESP32 + LD2410C</text>
  <text class="muted" x="78" y="318" font-size="14">Presence, movement,</text>
  <text class="muted" x="78" y="340" font-size="14">distance, sleep score</text>

  <rect class="card" x="450" y="132" width="240" height="250" rx="12"/>
  <rect x="506" y="174" width="128" height="82" rx="10" fill="#eaf3ef" stroke="#88b8a2"/>
  <rect x="526" y="190" width="88" height="14" rx="3" fill="#16794f"/>
  <rect x="526" y="214" width="64" height="10" rx="2" fill="#9bcab6"/>
  <rect x="526" y="234" width="48" height="10" rx="2" fill="#9bcab6"/>
  <text class="text" x="498" y="296" font-size="20" font-weight="800">Local server</text>
  <text class="muted mono" x="498" y="328" font-size="14">Python API + SQLite</text>
  <text class="muted" x="498" y="356" font-size="14">Dashboard, settings,</text>
  <text class="muted" x="498" y="378" font-size="14">reports, alerts</text>

  <rect class="card" x="846" y="96" width="220" height="152" rx="12"/>
  <circle cx="914" cy="154" r="34" fill="#f6efe5" stroke="#d3ad7b" stroke-width="2"/>
  <circle cx="914" cy="154" r="9" fill="#a96d12"/>
  <text class="text" x="972" y="142" font-size="18" font-weight="800">Remote hub</text>
  <text class="muted mono" x="972" y="170" font-size="13">BroadLink</text>
  <text class="muted" x="972" y="194" font-size="13">TV OFF signal</text>

  <rect class="card" x="846" y="312" width="220" height="152" rx="12"/>
  <rect x="884" y="352" width="66" height="78" rx="12" fill="#edf5ff" stroke="#9ab7d8" stroke-width="2"/>
  <circle cx="917" cy="391" r="14" fill="#2f65c8"/>
  <text class="text" x="972" y="358" font-size="18" font-weight="800">Power meter</text>
  <text class="muted mono" x="972" y="386" font-size="13">Shelly Plug</text>
  <text class="muted" x="972" y="410" font-size="13">Watts, standby,</text>
  <text class="muted" x="972" y="430" font-size="13">OFF confirmation</text>

  <rect class="card" x="768" y="210" width="190" height="72" rx="12"/>
  <rect x="794" y="226" width="80" height="40" rx="5" fill="#18202c"/>
  <rect x="816" y="268" width="36" height="5" fill="#657184"/>
  <text class="text" x="894" y="242" font-size="18" font-weight="800">TV</text>
  <text class="muted" x="894" y="264" font-size="13">turn off target</text>

  <path class="line" d="M268 250 C335 250 372 250 450 250" marker-end="url(#arrow)"/>
  <text class="muted mono" x="304" y="232" font-size="13">Wi-Fi readings</text>

  <path class="line" d="M690 226 C742 206 786 178 846 158" marker-end="url(#arrow)"/>
  <text class="muted mono" x="702" y="181" font-size="13">remote OFF</text>

  <path class="line" d="M846 386 C782 366 734 330 690 292" marker-end="url(#arrow)"/>
  <text class="muted mono" x="706" y="378" font-size="13">power status</text>

  <path class="line dash" d="M948 196 C980 224 980 238 958 246" marker-end="url(#arrow)"/>
  <text class="muted mono" x="972" y="230" font-size="13">IR</text>

  <path class="line dash" d="M948 358 C980 326 986 300 958 268" marker-end="url(#arrow)"/>
  <text class="muted mono" x="986" y="320" font-size="13">watts</text>

  <rect x="70" y="444" width="980" height="58" rx="10" fill="#eef2f7" stroke="#d5deeb"/>
  <text class="text" x="96" y="478" font-size="15" font-weight="800">Recommended flow:</text>
  <text class="muted" x="248" y="478" font-size="15">ESP32 measures sleep near the bed. The server sends OFF through a hub near the TV. Shelly verifies whether the TV really reached standby.</text>
</svg>
